<svg width="72" height="40" viewBox="0 0 72 40" fill="none" xmlns="http://www.w3.org/2000/svg">
<path d="M24.77 19H20.54L22.06 14.06C22.38 13.03 21.54 12 20.38 12C19.8 12 19.24 12.24 18.86 12.65L13 19H9V29H13H14H23.43C24.49 29 25.41 28.33 25.62 27.39L26.96 21.39C27.23 20.15 26.18 19 24.77 19ZM13 28H10V20H13V28ZM25.98 21.17L24.64 27.17C24.54 27.65 24.03 28 23.43 28H14V19.39L19.6 13.33C19.79 13.12 20.08 13 20.38 13C20.64 13 20.88 13.11 21.01 13.3C21.08 13.4 21.16 13.56 21.1 13.77L19.58 18.71L19.18 20H20.53H24.76C25.17 20 25.56 20.17 25.79 20.46C25.92 20.61 26.05 20.86 25.98 21.17Z" fill="white"/>
<path d="M41.4756 25H39.5V17.3848L37.1416 18.1162V16.5098L41.2637 15.0332H41.4756V25ZM44.9004 24.0293C44.9004 23.7148 45.0052 23.4596 45.2148 23.2637C45.429 23.0677 45.6956 22.9697 46.0146 22.9697C46.3382 22.9697 46.6048 23.0677 46.8145 23.2637C47.0286 23.4596 47.1357 23.7148 47.1357 24.0293C47.1357 24.3392 47.0309 24.5921 46.8213 24.7881C46.6117 24.9795 46.3428 25.0752 46.0146 25.0752C45.6911 25.0752 45.4245 24.9795 45.2148 24.7881C45.0052 24.5921 44.9004 24.3392 44.9004 24.0293ZM55.5576 16.1543L51.709 25H49.624L53.4795 16.6465H48.5303V15.0469H55.5576V16.1543ZM60.1582 21.0078L59.0918 22.1562V25H57.041V15.0469H59.0918V19.5586L59.9941 18.3213L62.5303 15.0469H65.0527L61.5186 19.4697L65.1553 25H62.7148L60.1582 21.0078Z" fill="white"/>
</svg>
