<svg width="24" height="24" viewBox="0 0 24 24" fill="none" xmlns="http://www.w3.org/2000/svg">
<path d="M9.8 9.8L5.97 18.03L14.2 14.2L18.03 5.97L9.8 9.8ZM13.08 12.77C12.87 13.06 12.57 13.25 12.22 13.31C12.15 13.32 12.07 13.33 12 13.33C11.72 13.33 11.46 13.25 11.23 13.08C10.94 12.87 10.75 12.57 10.69 12.22C10.63 11.87 10.71 11.51 10.92 11.23C11.13 10.94 11.43 10.75 11.78 10.69C12.13 10.63 12.48 10.71 12.77 10.92C13.06 11.13 13.25 11.43 13.31 11.78C13.37 12.13 13.29 12.48 13.08 12.77ZM12 3C16.96 3 21 7.04 21 12C21 16.96 16.96 21 12 21C7.04 21 3 16.96 3 12C3 7.04 7.04 3 12 3ZM12 2C6.48 2 2 6.48 2 12C2 17.52 6.48 22 12 22C17.52 22 22 17.52 22 12C22 6.48 17.52 2 12 2Z" fill="white"/>
</svg>
