<svg width="24" height="24" viewBox="0 0 24 24" fill="none" xmlns="http://www.w3.org/2000/svg">
<path d="M10 12H8V14H6V12H4V10H6V8H8V10H10V12ZM17 12.5C17 11.67 16.33 11 15.5 11C14.67 11 14 11.67 14 12.5C14 13.33 14.67 14 15.5 14C16.33 14 17 13.33 17 12.5ZM20 9.5C20 8.67 19.33 8 18.5 8C17.67 8 17 8.67 17 9.5C17 10.33 17.67 11 18.5 11C19.33 11 20 10.33 20 9.5ZM16.97 5.15L12.47 7.68L11.98 7.95L11.49 7.68L6.99 5.15L3 7.39V13.82L11.98 18.86L20.96 13.82V7.39L16.97 5.15ZM16.97 4L21.96 6.8V14.4L11.98 20L2 14.4V6.8L6.99 4L11.98 6.8L16.97 4Z" fill="white"/>
</svg>
