<svg width="24" height="24" viewBox="0 0 24 24" fill="none" xmlns="http://www.w3.org/2000/svg">
<path d="M15.36 9.96C15.36 11.05 14.69 11.63 14.05 12.2C13.52 12.67 13.02 13.1 12.89 13.8L12.85 14H11.1L11.13 13.72C11.27 12.55 11.93 11.96 12.6 11.45C13.12 11.05 13.61 10.68 13.61 9.96C13.61 9.45 13.38 8.99 12.98 8.67C12.58 8.36 12.06 8.25 11.56 8.38C10.97 8.53 10.51 9.05 10.37 9.72L10.32 10H8.57L8.63 9.58C8.83 8.18 9.78 7.05 11.05 6.71C12.1 6.42 13.19 6.63 14.03 7.28C14.88 7.92 15.36 8.9 15.36 9.96ZM12 18C12.55 18 13 17.55 13 17C13 16.45 12.55 16 12 16C11.45 16 11 16.45 11 17C11 17.55 11.45 18 12 18ZM12 3C7.04 3 3 7.04 3 12C3 16.96 7.04 21 12 21C16.96 21 21 16.96 21 12C21 7.04 16.96 3 12 3ZM12 2C17.52 2 22 6.48 22 12C22 17.52 17.52 22 12 22C6.48 22 2 17.52 2 12C2 6.48 6.48 2 12 2Z" fill="white"/>
</svg>
