<svg width="24" height="24" viewBox="0 0 24 24" fill="none" xmlns="http://www.w3.org/2000/svg">
<path d="M18.77 11H14.54L16.06 6.06C16.38 5.03 15.54 4 14.38 4C13.8 4 13.24 4.24 12.86 4.65L7 11H3V21H7H8H17.43C18.49 21 19.41 20.33 19.62 19.39L20.96 13.39C21.23 12.15 20.18 11 18.77 11ZM7 20H4V12H7V20ZM19.98 13.17L18.64 19.17C18.54 19.65 18.03 20 17.43 20H8V11.39L13.6 5.33C13.79 5.12 14.08 5 14.38 5C14.64 5 14.88 5.11 15.01 5.3C15.08 5.4 15.16 5.56 15.1 5.77L13.58 10.71L13.18 12H14.53H18.76C19.17 12 19.56 12.17 19.79 12.46C19.92 12.61 20.05 12.86 19.98 13.17Z" fill="white"/>
</svg>
