<svg width="24" height="24" viewBox="0 0 24 24" fill="none" xmlns="http://www.w3.org/2000/svg">
<path d="M14 12C14 13.1 13.1 14 12 14C10.9 14 10 13.1 10 12C10 10.9 10.9 10 12 10C13.1 10 14 10.9 14 12ZM6.36 6.33001L4.95 4.92001C3.13 6.73001 2 9.24001 2 12C2 14.76 3.13 17.27 4.95 19.08L6.36 17.67C4.9 16.22 4 14.21 4 12C4 9.79001 4.9 7.78001 6.36 6.33001ZM19.05 4.92001L17.64 6.33001C19.1 7.78001 20 9.79001 20 12C20 14.21 19.1 16.22 17.64 17.67L19.05 19.08C20.87 17.27 22 14.76 22 12C22 9.24001 20.87 6.73001 19.05 4.92001ZM9.19 9.16001L7.77 7.75001C6.68 8.83001 6 10.34 6 12C6 13.66 6.68 15.17 7.77 16.25L9.18 14.84C8.46 14.11 8 13.11 8 12C8 10.89 8.46 9.89001 9.19 9.16001ZM16.23 7.75001L14.82 9.16001C15.54 9.89001 16 10.89 16 12C16 13.11 15.54 14.11 14.81 14.84L16.22 16.25C17.32 15.17 18 13.66 18 12C18 10.34 17.32 8.83001 16.23 7.75001Z" fill="white"/>
</svg>
