<svg width="24" height="24" viewBox="0 0 24 24" fill="none" xmlns="http://www.w3.org/2000/svg">
<path d="M14 12C14 13.1 13.1 14 12 14C10.9 14 10 13.1 10 12C10 10.9 10.9 10 12 10C13.1 10 14 10.9 14 12ZM8.48 8.45001L7.77 7.75001C6.68 8.83001 6 10.34 6 12C6 13.66 6.68 15.17 7.77 16.25L8.48 15.54C7.57 14.64 7 13.39 7 12C7 10.61 7.57 9.36001 8.48 8.45001ZM16.23 7.75001L15.52 8.46001C16.43 9.36001 17 10.61 17 12C17 13.39 16.43 14.64 15.52 15.55L16.23 16.26C17.32 15.17 18 13.66 18 12C18 10.34 17.32 8.83001 16.23 7.75001ZM5.65 5.63001L4.95 4.92001C3.13 6.73001 2 9.24001 2 12C2 14.76 3.13 17.27 4.95 19.08L5.66 18.37C4.02 16.74 3 14.49 3 12C3 9.51001 4.02 7.26001 5.65 5.63001ZM19.05 4.92001L18.34 5.63001C19.98 7.26001 21 9.51001 21 12C21 14.49 19.98 16.74 18.35 18.37L19.06 19.08C20.87 17.27 22 14.76 22 12C22 9.24001 20.87 6.73001 19.05 4.92001Z" fill="white"/>
</svg>
