<svg width="24" height="24" viewBox="0 0 24 24" fill="none" xmlns="http://www.w3.org/2000/svg">
<path d="M10 20H14C14 21.1 13.1 22 12 22C10.9 22 10 21.1 10 20ZM20 17.35V19H4V17.35L6 15.47V10.32C6 7.40001 7.56 5.10001 10 4.34001V3.96001C10 2.54001 11.49 1.46001 12.99 2.20001C13.64 2.52001 14 3.23001 14 3.96001V4.35001C16.44 5.10001 18 7.41001 18 10.33V15.48L20 17.35ZM19 17.77L17 15.89V10.42C17 7.95001 15.81 6.06001 13.87 5.32001C12.61 4.79001 11.23 4.82001 10.03 5.35001C8.15 6.11001 7 7.99001 7 10.42V15.89L5 17.77V18H19V17.77Z" fill="white"/>
</svg>
