<svg width="24" height="24" viewBox="0 0 24 24" fill="none" xmlns="http://www.w3.org/2000/svg">
<path d="M21.58 7.19C21.4656 6.76589 21.242 6.37921 20.9314 6.06861C20.6208 5.75801 20.2341 5.53436 19.81 5.42C18.25 5 12 5 12 5C12 5 5.74997 5 4.18997 5.42C3.76586 5.53436 3.37919 5.75801 3.06858 6.06861C2.75798 6.37921 2.53433 6.76589 2.41997 7.19C2.13033 8.77673 1.98972 10.3871 1.99997 12C1.98972 13.6129 2.13033 15.2233 2.41997 16.81C2.53433 17.2341 2.75798 17.6208 3.06858 17.9314C3.37919 18.242 3.76586 18.4656 4.18997 18.58C5.74997 19 12 19 12 19C12 19 18.25 19 19.81 18.58C20.2341 18.4656 20.6208 18.242 20.9314 17.9314C21.242 17.6208 21.4656 17.2341 21.58 16.81C21.8696 15.2233 22.0102 13.6129 22 12C22.0102 10.3871 21.8696 8.77673 21.58 7.19ZM9.99997 14.65V9.35L15 12L9.99997 14.65Z" fill="white"/>
</svg>
