<svg width="24" height="24" viewBox="0 0 24 24" fill="none" xmlns="http://www.w3.org/2000/svg">
<path d="M9.99997 9.35L15 12L9.99997 14.65V9.35ZM12 6C9.47421 5.95085 6.94808 6.07782 4.43997 6.38C4.18719 6.4509 3.9569 6.58564 3.77126 6.77129C3.58562 6.95693 3.45087 7.18722 3.37997 7.44C3.11208 8.94492 2.98487 10.4715 2.99997 12C2.98487 13.5285 3.11208 15.0551 3.37997 16.56C3.45087 16.8128 3.58562 17.0431 3.77126 17.2287C3.9569 17.4144 4.18719 17.5491 4.43997 17.62C6.94808 17.9222 9.47421 18.0492 12 18C14.5257 18.0492 17.0519 17.9222 19.56 17.62C19.8128 17.5491 20.043 17.4144 20.2287 17.2287C20.4143 17.0431 20.5491 16.8128 20.62 16.56C20.8879 15.0551 21.0151 13.5285 21 12C21.0151 10.4715 20.8879 8.94492 20.62 7.44C20.5491 7.18722 20.4143 6.95693 20.2287 6.77129C20.043 6.58564 19.8128 6.4509 19.56 6.38C17.0519 6.07782 14.5257 5.95085 12 6ZM12 5C12 5 18.25 5 19.81 5.42C20.2341 5.53436 20.6208 5.75801 20.9314 6.06861C21.242 6.37921 21.4656 6.76589 21.58 7.19C21.8696 8.77673 22.0102 10.3871 22 12C22.0102 13.6129 21.8696 15.2233 21.58 16.81C21.4656 17.2341 21.242 17.6208 20.9314 17.9314C20.6208 18.242 20.2341 18.4656 19.81 18.58C18.25 19 12 19 12 19C12 19 5.74997 19 4.18997 18.58C3.76586 18.4656 3.37919 18.242 3.06858 17.9314C2.75798 17.6208 2.53433 17.2341 2.41997 16.81C2.13033 15.2233 1.98972 13.6129 1.99997 12C1.98972 10.3871 2.13033 8.77673 2.41997 7.19C2.53433 6.76589 2.75798 6.37921 3.06858 6.06861C3.37919 5.75801 3.76586 5.53436 4.18997 5.42C5.74997 5 12 5 12 5Z" fill="white"/>
</svg>
