<svg width="24" height="24" viewBox="0 0 24 24" fill="none" xmlns="http://www.w3.org/2000/svg">
<path d="M12 9C13.65 9 15 10.35 15 12C15 13.65 13.65 15 12 15C10.35 15 9.00003 13.65 9.00003 12C9.00003 10.35 10.35 9 12 9ZM12 8C9.79003 8 8.00003 9.79 8.00003 12C8.00003 14.21 9.79003 16 12 16C14.21 16 16 14.21 16 12C16 9.79 14.21 8 12 8ZM13.22 3L13.77 5.2L13.9 5.71L14.4 5.89C15.01 6.12 15.59 6.45 16.12 6.87L16.52 7.19L17.02 7.05L19.19 6.43L20.41 8.54L18.78 10.13L18.41 10.49L18.49 11C18.54 11.32 18.57 11.64 18.57 11.98C18.57 12.32 18.54 12.64 18.49 12.96L18.41 13.47L18.78 13.83L20.41 15.42L19.19 17.53L17.02 16.91L16.52 16.77L16.12 17.09C15.59 17.52 15.01 17.85 14.4 18.07L13.9 18.25L13.77 18.76L13.22 21H10.78L10.23 18.8L10.1 18.29L9.60003 18.11C9.00003 17.88 8.42003 17.55 7.88003 17.12L7.48003 16.8L6.98003 16.94L4.81003 17.56L3.60003 15.44L5.23003 13.85L5.60003 13.49L5.52003 12.98C5.47003 12.66 5.44003 12.33 5.44003 12C5.44003 11.67 5.47003 11.34 5.52003 11.02L5.60003 10.51L5.23003 10.15L3.60003 8.56L4.82003 6.45L6.99003 7.07L7.49003 7.21L7.89003 6.89C8.42003 6.45 9.00003 6.12 9.61003 5.9L10.11 5.72L10.24 5.21L10.78 3H13.22ZM14 2H10L9.26003 4.96C8.53003 5.23 7.86003 5.62 7.26003 6.1L4.34003 5.27L2.34003 8.73L4.53003 10.86C4.47003 11.23 4.44003 11.61 4.44003 12C4.44003 12.39 4.47003 12.77 4.53003 13.14L2.34003 15.27L4.34003 18.73L7.26003 17.9C7.86003 18.38 8.53003 18.77 9.26003 19.04L10 22H14L14.74 19.04C15.47 18.77 16.14 18.38 16.74 17.9L19.66 18.73L21.66 15.27L19.47 13.14C19.53 12.77 19.56 12.39 19.56 12C19.56 11.61 19.53 11.23 19.47 10.86L21.66 8.73L19.66 5.27L16.74 6.1C16.14 5.62 15.47 5.23 14.74 4.96L14 2Z" fill="white"/>
</svg>
