<svg width="24" height="24" viewBox="0 0 24 24" fill="none" xmlns="http://www.w3.org/2000/svg">
<path d="M17 3V5V6V10V10.51L16.99 10.97C16.94 13.1 15.66 14.94 13.74 15.67H13.72L13.66 15.69L13 15.95V16.65V19V20H14V21H15H10V20H11V19V16.65V15.95L10.34 15.71L10.26 15.68H10.25C8.33 14.95 7.05 13.11 7 10.98V10.51V10V6V5V3H17ZM18 2H6V5H4V6V10V11H6.01C6.07 13.53 7.63 15.78 9.97 16.64C9.98 16.64 9.99 16.64 10 16.65V19H9V20H8V22H16V20H15V19H14V16.65C14.01 16.65 14.02 16.65 14.03 16.64C16.36 15.78 17.93 13.54 17.99 11H20V10V6V5H18V2ZM18 10V6H19V10H18ZM5 10V6H6V10H5Z" fill="white"/>
</svg>
