<svg xmlns="http://www.w3.org/2000/svg" version="1.1" xmlns:xlink="http://www.w3.org/1999/xlink" xmlns:svgjs="http://svgjs.dev/svgjs" viewBox="0 0 800 800" opacity="0.81"><defs><linearGradient x1="50%" y1="0%" x2="50%" y2="100%" id="nnneon-grad"><stop stop-color="hsl(230, 55%, 50%)" stop-opacity="1" offset="0%"></stop><stop stop-color="hsl(230, 55%, 70%)" stop-opacity="1" offset="100%"></stop></linearGradient><filter id="nnneon-filter" x="-100%" y="-100%" width="400%" height="400%" filterUnits="objectBoundingBox" primitiveUnits="userSpaceOnUse" color-interpolation-filters="sRGB">
	<feGaussianBlur stdDeviation="19 8" x="0%" y="0%" width="100%" height="100%" in="SourceGraphic" edgeMode="none" result="blur"></feGaussianBlur></filter><filter id="nnneon-filter2" x="-100%" y="-100%" width="400%" height="400%" filterUnits="objectBoundingBox" primitiveUnits="userSpaceOnUse" color-interpolation-filters="sRGB">
	<feGaussianBlur stdDeviation="25 17" x="0%" y="0%" width="100%" height="100%" in="SourceGraphic" edgeMode="none" result="blur"></feGaussianBlur></filter></defs><g stroke-width="19" stroke="url(#nnneon-grad)" fill="none" transform="rotate(46, 400, 400)"><path d="M376.54463207901244 87.5093664462058C386.1539309266732 68.09188348061679 413.84608789997014 68.09188348061679 423.4553867476311 87.5093664462058L721.2520591243341 689.2786222237079C729.8590808863047 706.6706157263096 717.2036971098103 727.0537390172764 697.7992987014758 727.0537390172764H102.2007201251676C82.79632171683295 727.0537390172764 70.14093794033863 706.6706157263096 78.74795970230929 689.2786222237079L376.54463207901244 87.5093664462058Z " filter="url(#nnneon-filter)"></path><path d="M388.54463207901244 87.5093664462058C398.1539309266732 68.09188348061679 425.84608789997014 68.09188348061679 435.4553867476311 87.5093664462058L733.2520591243341 689.2786222237079C741.8590808863047 706.6706157263096 729.2036971098103 727.0537390172764 709.7992987014758 727.0537390172764H114.2007201251676C94.79632171683295 727.0537390172764 82.14093794033863 706.6706157263096 90.74795970230929 689.2786222237079L388.54463207901244 87.5093664462058Z " filter="url(#nnneon-filter2)" opacity="0.25"></path><path d="M364.54463207901244 87.5093664462058C374.1539309266732 68.09188348061679 401.84608789997014 68.09188348061679 411.4553867476311 87.5093664462058L709.2520591243341 689.2786222237079C717.8590808863047 706.6706157263096 705.2036971098103 727.0537390172764 685.7992987014758 727.0537390172764H90.2007201251676C70.79632171683295 727.0537390172764 58.14093794033863 706.6706157263096 66.74795970230929 689.2786222237079L364.54463207901244 87.5093664462058Z " filter="url(#nnneon-filter2)" opacity="0.25"></path><path d="M376.54463207901244 87.5093664462058C386.1539309266732 68.09188348061679 413.84608789997014 68.09188348061679 423.4553867476311 87.5093664462058L721.2520591243341 689.2786222237079C729.8590808863047 706.6706157263096 717.2036971098103 727.0537390172764 697.7992987014758 727.0537390172764H102.2007201251676C82.79632171683295 727.0537390172764 70.14093794033863 706.6706157263096 78.74795970230929 689.2786222237079L376.54463207901244 87.5093664462058Z "></path></g></svg>