<svg id="Layer_1" data-name="Layer 1" xmlns="http://www.w3.org/2000/svg" viewBox="0 0 39.97 39.97"><defs><style>.cls-1{fill:red;}.cls-2{fill:#fff;}</style></defs><circle class="cls-1" cx="19.98" cy="19.98" r="19.98"/><path class="cls-2" d="M25,11.34A13.44,13.44,0,1,1,11.58,24.77,13.45,13.45,0,0,1,25,11.34m0-3A16.44,16.44,0,1,0,41.45,24.77,16.44,16.44,0,0,0,25,8.34Z" transform="translate(-5.03 -4.79)"/><path class="cls-2" d="M19.13,24.77V16.86a.85.85,0,0,1,1.28-.73l6.85,3.95,6.85,4a.85.85,0,0,1,0,1.47l-6.85,3.95-6.85,4a.86.86,0,0,1-1.28-.74Z" transform="translate(-5.03 -4.79)"/></svg>