<svg id="Layer_1" data-name="Layer 1" xmlns="http://www.w3.org/2000/svg" viewBox="0 0 218.13 95.52"><defs><style>.cls-1{fill:red;}.cls-2{fill:#fff;}.cls-3{font-size:50px;fill:#0f0f0f;}.cls-3,.cls-4{font-family:Roboto-Black, Roboto;font-weight:800;}.cls-4{font-size:48px;fill:none;stroke:#0f0f0f;stroke-miterlimit:10;stroke-width:2px;}</style></defs><circle class="cls-1" cx="43.92" cy="47.26" r="43.92"/><path class="cls-2" d="M185.35,41.88A33.12,33.12,0,1,1,152.24,75a33.15,33.15,0,0,1,33.11-33.12m0-3A36.12,36.12,0,1,0,221.47,75a36.12,36.12,0,0,0-36.12-36.12Z" transform="translate(-141.44 -27.74)"/><path class="cls-2" d="M172.42,75V57.62A1.87,1.87,0,0,1,175.23,56l15.05,8.69,15.05,8.69a1.87,1.87,0,0,1,0,3.24l-15.05,8.69L175.23,94a1.87,1.87,0,0,1-2.81-1.62Z" transform="translate(-141.44 -27.74)"/><text class="cls-3" transform="translate(94.18 42.77)">PLAY</text><text class="cls-4" transform="translate(93.24 81.51)">PORT</text></svg>